<svg width="41" height="33" viewBox="0 0 41 33" fill="none" xmlns="http://www.w3.org/2000/svg">
<g clip-path="url(#clip0_170_3289)">
<path d="M39.6668 28.05C39.6668 28.9575 38.9168 29.7 38.0002 29.7H24.3835C23.5002 29.7 22.6502 30.0464 22.0252 30.6652L20.5002 32.175L18.9752 30.6652C18.3502 30.0464 17.5002 29.7 16.6168 29.7H3.00016C2.0835 29.7 1.3335 28.9575 1.3335 28.05V2.47495C1.3335 1.56745 2.0835 0.824951 3.00016 0.824951H16.6168C17.5002 0.824951 20.5002 3.29995 20.5002 3.29995C20.5002 3.29995 23.5002 0.824951 24.3835 0.824951H38.0002C38.9168 0.824951 39.6668 1.56745 39.6668 2.47495V28.05Z" stroke="#D54309" stroke-width="1.4" stroke-linecap="round" stroke-linejoin="round"/>
<path d="M20.5 3.30005V27.225" stroke="#D54309" stroke-width="1.4" stroke-linecap="round" stroke-linejoin="round"/>
<path d="M5.5 9.07495H16.3333" stroke="#D54309" stroke-width="1.4" stroke-linecap="round" stroke-linejoin="round"/>
<path d="M5.5 13.2H16.3333" stroke="#D54309" stroke-width="1.4" stroke-linecap="round" stroke-linejoin="round"/>
<path d="M5.5 17.325H16.3333" stroke="#D54309" stroke-width="1.4" stroke-linecap="round" stroke-linejoin="round"/>
<path d="M5.5 21.45H16.3333" stroke="#D54309" stroke-width="1.4" stroke-linecap="round" stroke-linejoin="round"/>
<path d="M33.8332 6.6001H27.1665V10.7251H33.8332V6.6001Z" stroke="#D54309" stroke-width="1.4" stroke-linecap="round" stroke-linejoin="round"/>
<path d="M30.5 10.7251V13.2001" stroke="#D54309" stroke-width="1.4" stroke-linecap="round" stroke-linejoin="round"/>
<path d="M33.8332 20.625H27.1665V24.75H33.8332V20.625Z" stroke="#D54309" stroke-width="1.4" stroke-linecap="round" stroke-linejoin="round"/>
<path d="M30.5 18.1499V20.6249" stroke="#D54309" stroke-width="1.4" stroke-linecap="round" stroke-linejoin="round"/>
<path d="M27.1665 15.675L30.4998 18.15L33.8332 15.675L30.4998 13.2L27.1665 15.675Z" stroke="#D54309" stroke-width="1.4" stroke-linecap="round" stroke-linejoin="round"/>
</g>
<defs>
<clipPath id="clip0_170_3289">
<rect width="40" height="33" fill="white" transform="translate(0.5)"/>
</clipPath>
</defs>
</svg>
